<svg width="32" height="32" viewBox="0 0 32 32" fill="none" xmlns="http://www.w3.org/2000/svg">
  <!-- Background Circle -->
  <circle cx="16" cy="16" r="16" fill="url(#gradient)" />
  
  <!-- AI Circuit Pattern -->
  <g opacity="0.8">
    <!-- Central Node -->
    <circle cx="16" cy="16" r="2" fill="white" />
    
    <!-- Connection Lines -->
    <line x1="16" y1="8" x2="16" y2="14" stroke="white" stroke-width="1.5" opacity="0.7" />
    <line x1="16" y1="18" x2="16" y2="24" stroke="white" stroke-width="1.5" opacity="0.7" />
    <line x1="8" y1="16" x2="14" y2="16" stroke="white" stroke-width="1.5" opacity="0.7" />
    <line x1="18" y1="16" x2="24" y2="16" stroke="white" stroke-width="1.5" opacity="0.7" />
    
    <!-- Corner Nodes -->
    <circle cx="16" cy="8" r="1.5" fill="white" opacity="0.8" />
    <circle cx="16" cy="24" r="1.5" fill="white" opacity="0.8" />
    <circle cx="8" cy="16" r="1.5" fill="white" opacity="0.8" />
    <circle cx="24" cy="16" r="1.5" fill="white" opacity="0.8" />
    
    <!-- Diagonal Connections -->
    <line x1="11.5" y1="11.5" x2="14" y2="14" stroke="white" stroke-width="1" opacity="0.5" />
    <line x1="20.5" y1="11.5" x2="18" y2="14" stroke="white" stroke-width="1" opacity="0.5" />
    <line x1="11.5" y1="20.5" x2="14" y2="18" stroke="white" stroke-width="1" opacity="0.5" />
    <line x1="20.5" y1="20.5" x2="18" y2="18" stroke="white" stroke-width="1" opacity="0.5" />
    
    <!-- Small Corner Nodes -->
    <circle cx="11.5" cy="11.5" r="1" fill="white" opacity="0.6" />
    <circle cx="20.5" cy="11.5" r="1" fill="white" opacity="0.6" />
    <circle cx="11.5" cy="20.5" r="1" fill="white" opacity="0.6" />
    <circle cx="20.5" cy="20.5" r="1" fill="white" opacity="0.6" />
  </g>
  
  <!-- Letter A Integration -->
  <path d="M12 22 L16 12 L20 22 M14 19 L18 19" stroke="white" stroke-width="2" fill="none" opacity="0.9" />
  
  <!-- Gradient Definition -->
  <defs>
    <linearGradient id="gradient" x1="0%" y1="0%" x2="100%" y2="100%">
      <stop offset="0%" style="stop-color:#10B981;stop-opacity:1" />
      <stop offset="50%" style="stop-color:#059669;stop-opacity:1" />
      <stop offset="100%" style="stop-color:#047857;stop-opacity:1" />
    </linearGradient>
  </defs>
</svg>