<?xml version="1.0" encoding="UTF-8"?>
<svg xmlns="http://www.w3.org/2000/svg" version="1.1" viewBox="0 0 64 64">
  <!-- Generator: Adobe Illustrator 28.7.1, SVG Export Plug-In . SVG Version: 1.2.0 Build 142)  -->
  <g>
    <g id="Outline">
      <g>
        <path d="M30,27c-1.6543,0-3,1.3457-3,3v6c0,.55225.44775,1,1,1s1-.44775,1-1v-2h2v2c0,.55225.44775,1,1,1s1-.44775,1-1v-6c0-1.6543-1.3457-3-3-3ZM29,32v-2c0-.55127.44873-1,1-1s1,.44873,1,1v2h-2Z"/>
        <path d="M36,27c-.55225,0-1,.44775-1,1v8c0,.55225.44775,1,1,1s1-.44775,1-1v-8c0-.55225-.44775-1-1-1Z"/>
        <path d="M24,41h16c.55225,0,1-.44775,1-1v-16c0-.55225-.44775-1-1-1h-16c-.55225,0-1,.44775-1,1v16c0,.55225.44775,1,1,1ZM25,25h14v14h-14v-14Z"/>
        <path d="M44,19h-24c-.55225,0-1,.44775-1,1v24c0,.55225.44775,1,1,1h24c.55225,0,1-.44775,1-1v-24c0-.55225-.44775-1-1-1ZM43,43h-22v-22h22v22Z"/>
        <path d="M51.17999,33c.41998,1.15997,1.52002,2,2.82001,2,1.65002,0,3-1.35004,3-3s-1.34998-3-3-3c-1.29999,0-2.40002.83997-2.82001,2h-2.17999v-2h2c.54999,0,1-.45001,1-1s-.45001-1-1-1h-2v-2h2c.54999,0,1-.45001,1-1s-.45001-1-1-1h-2v-2h2c.27002,0,.52002-.10999.71002-.29004l1-1.00995c.39996.19.82996.29999,1.28998.29999,1.65002,0,3-1.35004,3-3s-1.34998-3-3-3-3,1.34998-3,3c0,.45996.10999.89001.29999,1.28998l-.70996.71002h-1.59003v-1c0-1.65002-1.34998-3-3-3h-1v-1.59003l.71002-.70996c.39996.19.82996.29999,1.28998.29999,1.65002,0,3-1.35004,3-3s-1.34998-3-3-3-3,1.34998-3,3c0,.45996.10999.89001.29999,1.28998l-1.01001,1c-.17999.19-.28998.44-.28998.71002v2h-2v-2c0-.54999-.45001-1-1-1s-1,.45001-1,1v2h-2v-2c0-.54999-.45001-1-1-1s-1,.45001-1,1v2h-2v-2.17999c1.15997-.42004,2-1.52002,2-2.82001,0-1.65002-1.34998-3-3-3s-3,1.34998-3,3c0,1.29999.84003,2.39996,2,2.82001v2.17999h-2v-2c0-.54999-.45001-1-1-1s-1,.45001-1,1v2h-2v-2c0-.54999-.45001-1-1-1s-1,.45001-1,1v2h-2v-2c0-.27002-.10999-.52002-.28998-.71002l-1.01001-1c.19-.39996.29999-.83002.29999-1.28998,0-1.65002-1.34998-3-3-3s-3,1.34998-3,3,1.34998,3,3,3c.46002,0,.89001-.10999,1.28998-.29999l.71002.70996v1.59003h-1c-1.65002,0-3,1.34998-3,3v1h-1.59003l-.70996-.71002c.19-.39996.29999-.83002.29999-1.28998,0-1.65002-1.34998-3-3-3s-3,1.34998-3,3,1.34998,3,3,3c.46002,0,.89001-.10999,1.28998-.29999l1,1.00995c.19.18005.44.29004.71002.29004h2v2h-2c-.54999,0-1,.45001-1,1s.45001,1,1,1h2v2h-2c-.54999,0-1,.45001-1,1s.45001,1,1,1h2v2h-2.17999c-.41998-1.16003-1.52002-2-2.82001-2-1.65002,0-3,1.34998-3,3s1.34998,3,3,3c1.29999,0,2.40002-.84003,2.82001-2h2.17999v2h-2c-.54999,0-1,.45001-1,1s.45001,1,1,1h2v2h-2c-.54999,0-1,.45001-1,1s.45001,1,1,1h2v2h-2c-.27002,0-.52002.10999-.71002.28998l-1,1.01001c-.39996-.19-.82996-.29999-1.28998-.29999-1.65002,0-3,1.34998-3,3s1.34998,3,3,3,3-1.35004,3-3c0-.46002-.10999-.89001-.29999-1.29004l.70996-.70996h1.59003v1c0,1.64996,1.34998,3,3,3h1v1.58997l-.71002.71002c-.39996-.19-.82996-.29999-1.28998-.29999-1.65002,0-3,1.34998-3,3s1.34998,3,3,3,3-1.35004,3-3c0-.46002-.10999-.89001-.29999-1.29004l1.01001-1c.17999-.19.28998-.44.28998-.70996v-2h2v2c0,.54999.45001,1,1,1s1-.45001,1-1v-2h2v2c0,.54999.45001,1,1,1s1-.45001,1-1v-2h2v2.17999c-1.15997.41998-2,1.52002-2,2.82001,0,1.64996,1.34998,3,3,3s3-1.35004,3-3c0-1.29999-.84003-2.40002-2-2.82001v-2.17999h2v2c0,.54999.45001,1,1,1s1-.45001,1-1v-2h2v2c0,.54999.45001,1,1,1s1-.45001,1-1v-2h2v2c0,.26996.10999.51996.28998.70996l1.01001,1c-.19.40002-.29999.83002-.29999,1.29004,0,1.64996,1.34998,3,3,3s3-1.35004,3-3-1.34998-3-3-3c-.46002,0-.89001.10999-1.28998.29999l-.71002-.71002v-1.58997h1c1.65002,0,3-1.35004,3-3v-1h1.59003l.70996.70996c-.19.40002-.29999.83002-.29999,1.29004,0,1.64996,1.34998,3,3,3s3-1.35004,3-3-1.34998-3-3-3c-.46002,0-.89001.10999-1.28998.29999l-1-1.01001c-.19-.17999-.44-.28998-.71002-.28998h-2v-2h2c.54999,0,1-.45001,1-1s-.45001-1-1-1h-2v-2h2c.54999,0,1-.45001,1-1s-.45001-1-1-1h-2v-2h2.17999ZM54,31c.54999,0,1,.45001,1,1s-.45001,1-1,1-1-.45001-1-1,.45001-1,1-1ZM54,16c.54999,0,1,.45001,1,1s-.45001,1-1,1c-.27002,0-.52002-.10999-.70001-.29004v-.00995h-.01001c-.17999-.18005-.28998-.43005-.28998-.70001,0-.54999.45001-1,1-1ZM47,9c.54999,0,1,.45001,1,1s-.45001,1-1,1c-.27002,0-.52002-.10999-.70001-.29004v-.00995h-.01001c-.17999-.18005-.28998-.43005-.28998-.70001,0-.54999.45001-1,1-1ZM17.71002,10.70001h-.01001v.00995c-.17999.18005-.42999.29004-.70001.29004-.54999,0-1-.45001-1-1s.45001-1,1-1,1,.45001,1,1c0,.26996-.10999.51996-.28998.70001ZM10.71002,17.70001h-.01001v.00995c-.17999.18005-.42999.29004-.70001.29004-.54999,0-1-.45001-1-1s.45001-1,1-1,1,.45001,1,1c0,.26996-.10999.51996-.28998.70001ZM10,33c-.54999,0-1-.45001-1-1s.45001-1,1-1,1,.45001,1,1-.45001,1-1,1ZM10,48c-.54999,0-1-.45001-1-1s.45001-1,1-1c.27002,0,.52002.10999.70001.28998v.01001h.01001c.17999.17999.28998.42999.28998.70001,0,.54999-.45001,1-1,1ZM17,55c-.54999,0-1-.45001-1-1s.45001-1,1-1c.27002,0,.52002.10999.70001.28998v.01001h.01001c.17999.17999.28998.42999.28998.70001,0,.54999-.45001,1-1,1ZM46.28998,53.29999h.01001v-.01001c.17999-.17999.42999-.28998.70001-.28998.54999,0,1,.45001,1,1s-.45001,1-1,1-1-.45001-1-1c0-.27002.10999-.52002.28998-.70001ZM32,9c.54999,0,1,.45001,1,1s-.45001,1-1,1-1-.45001-1-1,.45001-1,1-1ZM32,55c-.54999,0-1-.45001-1-1s.45001-1,1-1,1,.45001,1,1-.45001,1-1,1ZM47,46c0,.54999-.45001,1-1,1h-28c-.54999,0-1-.45001-1-1v-28c0-.54999.45001-1,1-1h28c.54999,0,1,.45001,1,1v28ZM53.28998,46.29999h.01001v-.01001c.17999-.17999.42999-.28998.70001-.28998.54999,0,1,.45001,1,1s-.45001,1-1,1-1-.45001-1-1c0-.27002.10999-.52002.28998-.70001Z"/>
      </g>
    </g>
  </g>
</svg>