<svg id="Capa_1" enable-background="new 0 0 512 512" viewBox="0 0 512 512" xmlns="http://www.w3.org/2000/svg"><g><path d="m447.432 306.729-31.711-62.017s0-.001-.001-.001c-1.099-2.276-3.067-4.026-5.461-4.836-.288-.097-.483-.163-.519-.174l-65.569-20.345c24.217-23.203 39.318-55.858 39.318-91.976 0-70.237-57.11-127.38-127.307-127.38s-127.306 57.143-127.306 127.381c0 36.14 15.12 68.813 39.363 92.019 0 0-65.657 20.315-65.661 20.316l-.003.001c-2.541.773-4.662 2.54-5.881 4.9l-.049.095-31.711 62.017c-1.81 3.539-1.397 7.93 1.369 11.142 1 1.161 2.294 2.035 3.699 2.648l25.547 11.155v115.174c0 4.197 2.621 7.947 6.562 9.391l150.644 55.155.368.12c2.115.688 4.4.646 6.489-.12l150.644-55.155c3.941-1.443 6.562-5.193 6.562-9.39v-115.175l25.713-11.227c2.528-1.104 5.416-5.799 5.416-5.799s.74-5.463-.515-7.919zm-298.556-179.348c0-59.21 48.138-107.381 107.306-107.381s107.306 48.171 107.306 107.381-48.137 107.38-107.306 107.38-107.306-48.17-107.306-107.38zm107.306 127.38c25.402 0 49.091-7.483 68.979-20.362l50.621 15.707-119.6 44.342-119.564-44.329 50.657-15.674c19.874 12.851 43.536 20.316 68.907 20.316zm-145.777 6.97 130.896 48.53-30.561 49.887-123.161-53.777zm5.143 78.676 95.17 41.555c1.297.566 2.656.837 3.997.837 3.389 0 6.664-1.729 8.532-4.778l22.936-37.44v147.108l-130.635-47.829zm281.269 99.453-130.634 47.829v-147.108l22.936 37.44c1.868 3.05 5.143 4.778 8.532 4.778 1.341 0 2.7-.271 3.997-.837l95.17-41.555v99.453zm-95.193-79.712-30.561-49.887 130.896-48.53 22.826 44.64z"/><path d="m243.283 167.893c1.009.321 2.031.474 3.037.474 4.237 0 8.172-2.715 9.526-6.968l19.731-61.966c1.675-5.263-1.232-10.887-6.495-12.563-5.263-1.675-10.887 1.232-12.563 6.495l-19.731 61.966c-1.675 5.261 1.232 10.886 6.495 12.562z"/><path d="m292.946 167.018c1.577.914 3.3 1.348 5 1.347 3.452 0 6.81-1.789 8.664-4.992l18.294-31.603c1.826-3.153 1.792-7.05-.089-10.17l-18.294-30.363c-2.85-4.731-8.996-6.253-13.726-3.405-4.73 2.85-6.255 8.996-3.405 13.726l15.246 25.304-15.335 26.492c-2.766 4.78-1.135 10.897 3.645 13.664z"/><path d="m205.755 163.374c1.854 3.203 5.211 4.992 8.664 4.992 1.7 0 3.423-.434 5-1.347 4.78-2.767 6.412-8.884 3.645-13.664l-15.335-26.492 15.246-25.304c2.85-4.73 1.326-10.876-3.405-13.726-4.729-2.85-10.875-1.326-13.726 3.405l-18.295 30.362c-1.88 3.121-1.915 7.017-.089 10.17z"/></g><g/><g/><g/><g/><g/><g/><g/><g/><g/><g/><g/><g/><g/><g/><g/></svg>