<?xml version="1.0" encoding="UTF-8"?>
<svg id="Expanded" xmlns="http://www.w3.org/2000/svg" viewBox="0 0 64 64">
  <path d="M47,26c-3.31,0-6,2.69-6,6s2.69,6,6,6,6-2.69,6-6-2.69-6-6-6ZM47,36c-2.21,0-4-1.79-4-4s1.79-4,4-4,4,1.79,4,4-1.79,4-4,4Z"/>
  <path d="M57.5,28h-.84l.6-.6c.98-.97.98-2.56,0-3.54l-2.12-2.12c-.98-.98-2.56-.97-3.54,0l-.6.6v-.84c0-1.38-1.12-2.5-2.5-2.5h-.5v-2c0-1.65-1.35-3-3-3h-21.1c-.46-2.28-2.48-4-4.9-4h-10c-2.76,0-5,2.24-5,5v34c0,2.76,2.24,5,5,5h10c2.41,0,4.43-1.72,4.9-4h21.1c1.65,0,3-1.35,3-3v-2h.5c1.38,0,2.5-1.12,2.5-2.5v-.84l.6.6c.97.97,2.56.98,3.54,0l2.12-2.12c.98-.97.98-2.56,0-3.54l-.6-.6h.84c1.38,0,2.5-1.12,2.5-2.5v-3c0-1.38-1.12-2.5-2.5-2.5ZM22,49c0,1.65-1.35,3-3,3h-10c-1.65,0-3-1.35-3-3V15c0-1.65,1.35-3,3-3h10c1.65,0,3,1.35,3,3v34ZM24,16h21c.55,0,1,.45,1,1v2h-.5c-1.38,0-2.5,1.12-2.5,2.5v.84l-.6-.6c-.97-.97-2.56-.98-3.54,0l-2.12,2.12c-.98.97-.98,2.56,0,3.54l.6.6h-.84c-1.38,0-2.5,1.12-2.5,2.5v.5h-10v-15ZM46,47c0,.55-.45,1-1,1h-21v-15h10v.5c0,1.38,1.12,2.5,2.5,2.5h.84l-.6.6c-.98.97-.98,2.56,0,3.54l2.12,2.12c.98.98,2.56.97,3.54,0l.6-.6v.84c0,1.38,1.12,2.5,2.5,2.5h.5v2ZM58,33.5c0,.28-.22.5-.5.5h-1.56c-1.49,0-2.27,1.85-1.21,2.91l1.1,1.1c.19.2.19.51,0,.71l-2.12,2.12c-.2.2-.51.2-.71,0l-1.1-1.1c-1.05-1.05-2.91-.3-2.91,1.21v1.56c0,.28-.22.5-.5.5h-3c-.28,0-.5-.22-.5-.5v-1.56c0-.97-.81-1.7-1.72-1.7-1.54,0-2.22,2.36-2.99,1.59l-2.12-2.12c-.87-.87,2.29-1.64,1.45-3.66-.84-2.03-3.61-.29-3.61-1.55v-3c0-1.23,2.78.46,3.62-1.56.27-.64.13-1.37-.36-1.85-1.79-1.79-1.82-1.08,1.02-3.93.87-.87,1.64,2.29,3.66,1.45,2.03-.84.29-3.61,1.55-3.61h3c1.23,0-.46,2.78,1.56,3.62,2.03.84,2.76-2.35,3.66-1.46l2.12,2.12c.87.87-2.29,1.64-1.45,3.66.84,2.03,3.61.29,3.61,1.55v3Z"/>
  <path d="M16,15h-4c-1.65,0-3,1.35-3,3v2c0,1.65,1.35,3,3,3h4c1.65,0,3-1.35,3-3v-2c0-1.65-1.35-3-3-3ZM17,20c0,.55-.45,1-1,1h-4c-.55,0-1-.45-1-1v-2c0-.55.45-1,1-1h4c.55,0,1,.45,1,1v2Z"/>
  <path d="M16,41h-4c-1.65,0-3,1.35-3,3v2c0,1.65,1.35,3,3,3h4c1.65,0,3-1.35,3-3v-2c0-1.65-1.35-3-3-3ZM17,46c0,.55-.45,1-1,1h-4c-.55,0-1-.45-1-1,0-3.5-.56-3,5-3,.55,0,1,.45,1,1v2Z"/>
  <path d="M14,27c-2.76,0-5,2.24-5,5s2.24,5,5,5,5-2.24,5-5-2.24-5-5-5ZM14,35c-1.65,0-3-1.35-3-3s1.35-3,3-3,3,1.35,3,3-1.35,3-3,3Z"/>
</svg>