<?xml version="1.0" encoding="UTF-8"?>
<svg id="Expanded" xmlns="http://www.w3.org/2000/svg" viewBox="0 0 64 64">
  <path d="M45,37c.55,0,1-.45,1-1s-.45-1-1-1h-3v-2h3c.55,0,1-.45,1-1s-.45-1-1-1h-3v-2h3c.55,0,1-.45,1-1s-.45-1-1-1h-3c0-2.76-2.24-5-5-5v-3c0-.55-.45-1-1-1s-1,.45-1,1v3h-2v-3c0-.55-.45-1-1-1s-1,.45-1,1v3h-2v-3c0-.55-.45-1-1-1s-1,.45-1,1v3c-2.76,0-5,2.24-5,5h-3c-.55,0-1,.45-1,1s.45,1,1,1h3v2h-3c-.55,0-1,.45-1,1s.45,1,1,1h3v2h-3c-.55,0-1,.45-1,1s.45,1,1,1h3c0,2.76,2.24,5,5,5v3c0,.55.45,1,1,1s1-.45,1-1v-3h2v3c0,.55.45,1,1,1s1-.45,1-1v-3h2v3c0,.55.45,1,1,1s1-.45,1-1v-3c2.76,0,5-2.24,5-5h3ZM40,37c0,1.65-1.35,3-3,3h-10c-1.65,0-3-1.35-3-3v-10c0-1.65,1.35-3,3-3h10c1.65,0,3,1.35,3,3v10ZM32,26c-3.31,0-6,2.69-6,6s2.69,6,6,6,6-2.69,6-6-2.69-6-6-6ZM32,36c-2.21,0-4-1.79-4-4s1.79-4,4-4,4,1.79,4,4-1.79,4-4,4ZM45,16c-1.65,0-3,1.35-3,3s1.35,3,3,3,3-1.35,3-3-1.35-3-3-3ZM45,20c-.55,0-1-.45-1-1s.45-1,1-1,1,.45,1,1-.45,1-1,1ZM19,22c1.65,0,3-1.35,3-3s-1.35-3-3-3-3,1.35-3,3,1.35,3,3,3ZM19,18c.55,0,1,.45,1,1s-.45,1-1,1-1-.45-1-1,.45-1,1-1ZM45,42c-1.65,0-3,1.35-3,3s1.35,3,3,3,3-1.35,3-3-1.35-3-3-3ZM45,46c-.55,0-1-.45-1-1s.45-1,1-1,1,.45,1,1-.45,1-1,1ZM19,42c-1.65,0-3,1.35-3,3s1.35,3,3,3,3-1.35,3-3-1.35-3-3-3ZM19,46c-.55,0-1-.45-1-1s.45-1,1-1,1,.45,1,1-.45,1-1,1ZM57,35c1.65,0,3-1.35,3-3s-1.35-3-3-3h-5v-4h5c1.65,0,3-1.35,3-3s-1.35-3-3-3h-5v-2c0-2.76-2.24-5-5-5h-2v-5c0-1.65-1.35-3-3-3s-3,1.35-3,3v5h-4v-5c0-1.65-1.35-3-3-3s-3,1.35-3,3v5h-4v-5c0-1.65-1.35-3-3-3s-3,1.35-3,3v5h-2c-2.76,0-5,2.24-5,5v2h-5c-1.65,0-3,1.35-3,3s1.35,3,3,3h5v4h-5c-1.65,0-3,1.35-3,3s1.35,3,3,3h5v4h-5c-1.65,0-3,1.35-3,3s1.35,3,3,3h5v2c0,2.76,2.24,5,5,5h2v5c0,1.65,1.35,3,3,3s3-1.35,3-3v-5h4v5c0,1.65,1.35,3,3,3s3-1.35,3-3v-5h4v5c0,1.65,1.35,3,3,3s3-1.35,3-3v-5h2c2.76,0,5-2.24,5-5v-2h5c1.65,0,3-1.35,3-3s-1.35-3-3-3h-5v-4h5ZM57,31c.55,0,1,.45,1,1s-.45,1-1,1h-5v-2h5ZM57,21c.55,0,1,.45,1,1s-.45,1-1,1h-5v-2h5ZM41,7c0-.55.45-1,1-1s1,.45,1,1v5h-2v-5ZM31,7c0-.55.45-1,1-1s1,.45,1,1v5h-2v-5ZM21,7c0-.55.45-1,1-1s1,.45,1,1v5h-2v-5ZM7,23c-.55,0-1-.45-1-1s.45-1,1-1h5v2h-5ZM7,33c-.55,0-1-.45-1-1s.45-1,1-1h5v2h-5ZM7,43c-.55,0-1-.45-1-1s.45-1,1-1h5v2h-5ZM23,57c0,.55-.45,1-1,1s-1-.45-1-1v-5h2v5ZM33,57c0,.55-.45,1-1,1s-1-.45-1-1v-5h2v5ZM43,57c0,.55-.45,1-1,1s-1-.45-1-1v-5h2v5ZM50,47c0,1.65-1.35,3-3,3h-30c-1.65,0-3-1.35-3-3v-30c0-1.65,1.35-3,3-3h30c1.65,0,3,1.35,3,3v30ZM57,41c.55,0,1,.45,1,1s-.45,1-1,1h-5v-2h5Z"/>
</svg>