<?xml version="1.0" encoding="UTF-8"?>
<svg id="Expanded" xmlns="http://www.w3.org/2000/svg" viewBox="0 0 64 64">
  <path d="M50.29,35.29l-3.29,3.29-1.29-1.29c-.94-.94-2.35.48-1.41,1.41,2.18,2.18,2.17,2.29,2.71,2.29s.3.12,4.71-4.29c.39-.39.39-1.02,0-1.41s-1.02-.39-1.41,0Z"/>
  <path d="M57.18,33.2c1.84-3.5-1.94-7.21-5.36-5.39-.3-.96-.95-1.78-1.82-2.27,0-8.14.78-6.18-6-12.96v-3.59c0-2.76-2.24-5-5-5H9c-2.76,0-5,2.24-5,5v40c0,2.76,2.24,5,5,5h1v1c0,2.76,2.24,5,5,5h30c2.76,0,5-2.24,5-5v-6.55c.87-.5,1.52-1.31,1.82-2.27,3.48,1.82,7.19-1.91,5.36-5.38,3.75-1.17,3.75-6.44,0-7.6ZM48.82,42.94c-.86.16-1.88.07-3.19-.42-5.25-2.23-4.71-10.15,1.13-11.38,5.78-1.24,9.67,5.85,5.52,10.07-.25.26-2.16,1.57-3.46,1.73ZM43.92,43.89c-.29.36-.68.61-1.14.71-2.08.47-3.34-2.21-1.67-3.53.71,1.19,1.75,2.19,2.8,2.81ZM46.86,27.36c1.33-.94,3.34.09,3.12,1.89-1.29-.32-2.67-.33-3.95,0-.1-.82.3-1.52.83-1.89ZM41.11,32.92c-1.51-1.19-.65-3.58,1.23-3.58.64,0,1.22.31,1.58.77-1.19.71-2.19,1.77-2.81,2.81ZM40.25,35.02c-.32,1.26-.32,2.71,0,3.97-1.16.14-2.25-.8-2.25-1.98s1.06-2.13,2.25-1.98ZM54.89,32.92c-.61-1.03-1.64-2.12-2.81-2.81,1.86-2.35,5.13.96,2.81,2.81ZM47.92,20h-4.92c-1.65,0-3-1.35-3-3v-4.92c1.09.25.88.22,7.12,6.46.37.37.66.87.8,1.46ZM9,52c-1.65,0-3-1.35-3-3V9c0-1.65,1.35-3,3-3h30c1.65,0,3,1.35,3,3v1.77c-1.68-1.05-.88-.77-27-.77-2.76,0-5,2.24-5,5v37h-1ZM48,55c0,1.65-1.35,3-3,3H15c-1.65,0-3-1.35-3-3V15c0-1.65,1.35-3,3-3h23v5c0,2.76,2.24,5,5,5h5v3c-1.79,0-3.3,1.19-3.8,2.82-3.48-1.83-7.21,1.9-5.38,5.38-3.75,1.17-3.75,6.44,0,7.6-1.83,3.47,1.9,7.21,5.38,5.39.51,1.62,2.01,2.81,3.8,2.81v6ZM48,47c-1.12,0-2.13-.95-1.97-2.25,1.33.34,2.69.32,3.95,0,.15,1.22-.82,2.25-1.98,2.25ZM55.07,44.07c-.87.87-2.27.73-2.99-.18,1.18-.7,2.16-1.72,2.81-2.81.97.77,1.02,2.16.19,2.99ZM55.75,38.98c.32-1.26.32-2.71,0-3.97,1.15-.15,2.25.8,2.25,1.98,0,1.19-1.09,2.13-2.25,1.98Z"/>
  <path d="M35,54h-1v-5c0-1.32-2-1.32-2,0v5h-2v-3c0-1.32-2-1.32-2,0v3h-2v-6c0-1.32-2-1.32-2,0v6h-2v-5c0-1.32-2-1.32-2,0v5h-2v-2c0-1.32-2-1.32-2,0v2h-1c-1.32,0-1.32,2,0,2h20c1.32,0,1.32-2,0-2Z"/>
  <path d="M21,28c3.86,0,7-3.14,7-7s-3.14-7-7-7-7,3.14-7,7,3.14,7,7,7ZM18.25,25.17l3.17-3.17h4.48c-.71,3.47-4.7,5.12-7.65,3.17ZM25.9,20h-3.9v-3.9c1.96.4,3.5,1.94,3.9,3.9ZM20,16.1v4.48l-3.17,3.17c-1.95-2.95-.3-6.95,3.17-7.65Z"/>
  <path d="M31,18h4c1.32,0,1.32-2,0-2h-4c-1.32,0-1.32,2,0,2Z"/>
  <path d="M31,22h4c1.32,0,1.32-2,0-2h-4c-1.32,0-1.32,2,0,2Z"/>
  <path d="M31,26h4c1.32,0,1.32-2,0-2h-4c-1.32,0-1.32,2,0,2Z"/>
  <path d="M15,32h3c1.32,0,1.32-2,0-2h-3c-1.32,0-1.32,2,0,2Z"/>
  <path d="M15,36h17c1.32,0,1.32-2,0-2H15c-1.32,0-1.32,2,0,2Z"/>
  <path d="M15,40h17c1.32,0,1.32-2,0-2H15c-1.32,0-1.32,2,0,2Z"/>
  <path d="M15,44h17c1.32,0,1.32-2,0-2H15c-1.32,0-1.32,2,0,2Z"/>
</svg>