<svg xmlns="http://www.w3.org/2000/svg" id="Icons" viewBox="0 0 64 64">
  <defs fill="#a4f58a">
    <style>
      .cls-1 {
        fill: #a4f58a;
      }

      .cls-2 {
        fill: none;
      }
    </style>
  </defs>
  <rect class="cls-2" width="64" height="64" fill="#a4f58a"/>
  <g>
    <path class="cls-1" d="M12.8,15.99h19.96c1.14,0,2.18.47,2.93,1.22h0c.75.76,1.22,1.79,1.22,2.93v15.97c0,1.14-.47,2.18-1.22,2.93h0c-.75.75-1.79,1.22-2.93,1.22H12.8c-1.14,0-2.18-.47-2.93-1.22h0c-.75-.75-1.22-1.79-1.22-2.93v-15.97c0-1.14.47-2.18,1.22-2.93h0c.75-.75,1.79-1.22,2.93-1.22ZM32.76,17.14H12.8c-.82,0-1.57.34-2.12.88-.54.54-.88,1.29-.88,2.12v15.97c0,.82.34,1.57.88,2.12.54.54,1.29.88,2.12.88h19.96c.82,0,1.57-.34,2.11-.88h0c.54-.54.88-1.29.88-2.12v-15.97c0-.82-.34-1.57-.88-2.11h0c-.54-.54-1.29-.88-2.11-.88Z" fill="#a4f58a"/>
    <path class="cls-1" d="M36.33,22.24h2.32c.66,0,1.26.27,1.7.71.44.44.71,1.04.71,1.7v4.67c0,.66-.27,1.26-.71,1.7-.44.44-1.04.71-1.7.71h-2.9v-9.48h.58ZM38.66,23.39h-1.74v7.17h1.74c.34,0,.66-.14.88-.37.23-.23.37-.54.37-.88v-4.67c0-.34-.14-.66-.37-.88-.23-.23-.54-.37-.88-.37Z" fill="#a4f58a"/>
    <path class="cls-1" d="M8.65,23.39h-1.74c-.34,0-.66.14-.88.37-.23.23-.37.54-.37.88v4.67c0,.34.14.66.37.89.23.23.54.37.89.37h1.74v-7.17h0ZM6.91,22.24h2.9v9.48h-2.9c-.66,0-1.26-.27-1.7-.71h0c-.44-.44-.71-1.04-.71-1.7v-4.67c0-.66.27-1.26.71-1.7.44-.44,1.04-.71,1.7-.71h0Z" fill="#a4f58a"/>
    <path class="cls-1" d="M23.36,16.57c0,.32-.26.58-.58.58s-.58-.26-.58-.58v-4.67c0-.32.26-.58.58-.58s.58.26.58.58v4.67Z" fill="#a4f58a"/>
    <path class="cls-1" d="M22.78,6.41c.84,0,1.59.34,2.14.89.55.55.89,1.31.89,2.15s-.34,1.59-.89,2.14h0c-.55.55-1.31.89-2.14.89s-1.59-.34-2.14-.89h0c-.55-.55-.89-1.31-.89-2.15s.34-1.59.89-2.14h0c.55-.55,1.31-.89,2.14-.89h0ZM24.11,8.11c-.34-.34-.81-.55-1.33-.55s-.99.21-1.33.55c-.34.34-.55.81-.55,1.33s.21.99.55,1.33c.34.34.81.55,1.33.55s.99-.21,1.33-.55c.34-.34.55-.81.55-1.33s-.21-.99-.55-1.33Z" fill="#a4f58a"/>
    <path class="cls-1" d="M13.46,21.5h18.64c.55,0,1.05.23,1.42.59s.59.86.59,1.42v11.81c0,.55-.23,1.05-.59,1.41h0c-.36.37-.86.59-1.41.59H13.46c-.55,0-1.05-.23-1.42-.59-.36-.37-.59-.87-.59-1.42v-11.81c0-.55.23-1.05.59-1.42s.86-.59,1.42-.59h0ZM32.1,22.66H13.46c-.23,0-.45.1-.6.25-.15.15-.25.37-.25.6v11.81c0,.23.1.45.25.6.16.15.37.25.6.25h18.64c.23,0,.45-.1.6-.25h0c.15-.16.25-.37.25-.6v-11.81c0-.23-.1-.45-.25-.6-.15-.15-.37-.25-.6-.25h0Z" fill="#a4f58a"/>
    <path class="cls-1" d="M16.88,24.03c.79,0,1.51.32,2.03.84.52.52.84,1.24.84,2.03s-.32,1.51-.84,2.03c-.52.52-1.24.84-2.03.84s-1.51-.32-2.03-.84c-.52-.52-.84-1.24-.84-2.03s.32-1.51.84-2.03c.52-.52,1.24-.84,2.03-.84ZM18.09,25.69c-.31-.31-.74-.5-1.21-.5s-.9.19-1.21.5c-.31.31-.5.74-.5,1.21s.19.9.5,1.21c.31.31.74.5,1.21.5s.9-.19,1.21-.5c.31-.31.5-.74.5-1.21s-.19-.9-.5-1.21h0Z" fill="#a4f58a"/>
    <path class="cls-1" d="M28.69,24.03c.79,0,1.51.32,2.03.84.52.52.84,1.24.84,2.03s-.32,1.51-.84,2.03h0c-.52.52-1.24.84-2.03.84s-1.51-.32-2.03-.84c-.52-.52-.84-1.24-.84-2.03s.32-1.51.84-2.03h0c.52-.52,1.24-.84,2.03-.84h0ZM29.9,25.68c-.31-.31-.74-.5-1.21-.5s-.9.19-1.21.5h0c-.31.31-.5.74-.5,1.21s.19.9.5,1.21c.31.31.74.5,1.21.5s.9-.19,1.21-.5c.31-.31.5-.74.5-1.21s-.19-.9-.5-1.21h0Z" fill="#a4f58a"/>
    <path class="cls-1" d="M26.06,31.52c0,.9-.37,1.72-.96,2.31-.59.59-1.41.96-2.32.96s-1.72-.37-2.32-.96c-.59-.59-.96-1.41-.96-2.32v-.58h6.55v.58h0ZM24.28,33.02c.25-.25.44-.57.54-.92h-4.08c.1.35.29.67.54.92.38.38.92.62,1.5.62s1.12-.24,1.5-.62Z" fill="#a4f58a"/>
    <path class="cls-1" d="M22.78,39.11h9.59l-1.49,3.59c-.48,1.16-1.26,2.11-2.24,2.76-.98.65-2.15,1.02-3.41,1.02h-4.92c-1.26,0-2.43-.36-3.41-1.02-.98-.65-1.76-1.6-2.24-2.76l-1.49-3.59h9.59ZM30.65,40.26h-15.74l.83,2c.39.95,1.03,1.71,1.82,2.24.79.53,1.74.82,2.77.82h4.92c1.03,0,1.98-.29,2.77-.82.79-.53,1.42-1.29,1.82-2.24l.83-2h0Z" fill="#a4f58a"/>
    <path class="cls-1" d="M20.44,39.11h5.25v2.98c0,.39-.16.75-.42,1.01h0c-.26.26-.62.42-1.01.42h-2.97c-.39,0-.75-.16-1.01-.42h0c-.26-.26-.42-.62-.42-1.01v-2.98h.58ZM24.54,40.26h-3.52v1.83c0,.08.03.15.08.2h0c.05.05.12.08.2.08h2.97c.08,0,.15-.03.2-.08h0c.05-.05.08-.12.08-.2v-1.83Z" fill="#a4f58a"/>
    <path class="cls-1" d="M37.95,44.19l-2.78-4.27,6,1.28c.94-.56,2-1.02,3.14-1.33,1.18-.32,2.44-.5,3.74-.5,3.13,0,5.98,1,8.04,2.62,2.1,1.65,3.4,3.94,3.4,6.49s-1.3,4.84-3.4,6.49c-2.06,1.62-4.91,2.62-8.04,2.62s-5.98-1-8.04-2.62c-2.1-1.65-3.4-3.94-3.4-6.49,0-.83.14-1.64.4-2.4.23-.66.55-1.3.94-1.89ZM37.66,41.63l1.69,2.59-.24.32c-.44.59-.78,1.23-1.01,1.9-.22.65-.34,1.33-.34,2.03,0,2.17,1.13,4.14,2.96,5.58,1.87,1.47,4.46,2.38,7.33,2.38s5.46-.91,7.33-2.38c1.83-1.44,2.96-3.41,2.96-5.58s-1.13-4.14-2.96-5.58c-1.87-1.47-4.46-2.38-7.33-2.38-1.21,0-2.37.16-3.44.45-1.11.3-2.13.75-3.03,1.32l-.2.12s-3.72-.79-3.72-.79Z" fill="#a4f58a"/>
    <path class="cls-1" d="M44.17,45.27c-.32,0-.58-.26-.58-.58s.26-.58.58-.58h7.77c.32,0,.58.26.58.58s-.26.58-.58.58h-7.77Z" fill="#a4f58a"/>
    <path class="cls-1" d="M41.97,49.06c-.32,0-.58-.26-.58-.58s.26-.58.58-.58h12.17c.32,0,.58.26.58.58s-.26.58-.58.58h-12.17Z" fill="#a4f58a"/>
    <path class="cls-1" d="M41.97,52.85c-.32,0-.58-.26-.58-.58s.26-.58.58-.58h12.17c.32,0,.58.26.58.58s-.26.58-.58.58h-12.17Z" fill="#a4f58a"/>
  </g>
</svg>