<svg id="Outline_Expand" data-name="Outline Expand" xmlns="http://www.w3.org/2000/svg" viewBox="0 0 64 64"><title>Rocket</title><path d="M56,2.1A60.08,60.08,0,0,0,45.47,4.88h0l0,0A36.75,36.75,0,0,0,37,9.17a73.3,73.3,0,0,0-9.52,8.5L20,15.76a5.19,5.19,0,0,0-4.93,1.35l-.54.54a3.15,3.15,0,0,0-.76-1.19l-.8-.8a3.38,3.38,0,0,0-4.78,0L2.9,20.93a3.38,3.38,0,0,0,0,4.78l.8.8a3.36,3.36,0,0,0,2.39,1,3.56,3.56,0,0,0,.73-.09,5.37,5.37,0,0,0,0,.8A5.11,5.11,0,0,0,9.49,32l5,2.76a5.3,5.3,0,0,0,.61,2,3.28,3.28,0,0,0-1.3.77l-.74.75a3.22,3.22,0,0,0,0,4.56l8.15,8.16a3.25,3.25,0,0,0,4.57,0l.74-.75A3.09,3.09,0,0,0,27.31,49a5.23,5.23,0,0,0,1.91.55l2.74,5a5.13,5.13,0,0,0,3.8,2.63,6.27,6.27,0,0,0,.74,0h.06a3.38,3.38,0,0,0,.9,3.12l.8.8a3.38,3.38,0,0,0,4.78,0l5.27-5.27a3.38,3.38,0,0,0,0-4.78l-.79-.8a3.31,3.31,0,0,0-1.19-.76l.53-.54A5.18,5.18,0,0,0,48.21,44l-1.89-7.43A72.35,72.35,0,0,0,54.85,27,36.62,36.62,0,0,0,59,18.86a.6.6,0,0,0,.06-.11.28.28,0,0,0,0-.09A59.51,59.51,0,0,0,61.92,8.05,5.15,5.15,0,0,0,56,2.1ZM8.33,23.83,7.06,25.1a1.43,1.43,0,0,1-1.95,0l-.8-.8a1.39,1.39,0,0,1,0-1.95l5.28-5.28a1.39,1.39,0,0,1,1.95,0l.8.8a1.38,1.38,0,0,1,0,1.95Zm6.45,8.81-4.33-2.38a3.18,3.18,0,0,1-.71-5l4-4,2.71-2.71a3.16,3.16,0,0,1,3-.83l6.42,1.63c-4,4.23-7.72,8.65-10.26,11.78A5.17,5.17,0,0,0,14.78,32.64ZM25.11,48.89l-.75.75a1.24,1.24,0,0,1-1.73,0l-8.16-8.16a1.23,1.23,0,0,1,0-1.74l.75-.74A1.22,1.22,0,0,1,17,39l8.16,8.15A1.23,1.23,0,0,1,25.11,48.89Zm4.42-1.34a3.2,3.2,0,0,1-2.12-.92l-.89-.89-8.15-8.16-1-1a3.16,3.16,0,0,1-.21-4.25l.63-.77L32.43,46.21l-.77.63a3.16,3.16,0,0,1-1.61.69A1,1,0,0,0,29.53,47.55ZM46.9,52.43a1.38,1.38,0,0,1,0,2l-5.27,5.28a1.43,1.43,0,0,1-2,0l-.79-.8a1.38,1.38,0,0,1,0-2l1.26-1.27h0l4-4a1.38,1.38,0,0,1,1-.41,1.41,1.41,0,0,1,1,.4Zm-1.45-4.92-2.71,2.71h0l-4,4a3.13,3.13,0,0,1-2.68.9,3.19,3.19,0,0,1-2.33-1.61l-2.34-4.26a5.08,5.08,0,0,0,1.55-.87c3.12-2.54,7.52-6.25,11.74-10.23l1.62,6.33A3.21,3.21,0,0,1,45.45,47.51Zm7.77-21.64a71.6,71.6,0,0,1-8.46,9.41,1,1,0,0,0-.46.45c-3.65,3.51-7.48,6.82-10.33,9.2L19.1,30.05C23.74,24.5,32,15.18,38.16,10.81a34.17,34.17,0,0,1,7-3.69,21.29,21.29,0,0,0,4.57,7.08A21.41,21.41,0,0,0,56.86,19,33.8,33.8,0,0,1,53.22,25.87ZM60,7.71a59,59,0,0,1-2.39,9.4,19.25,19.25,0,0,1-6.4-4.31A19.32,19.32,0,0,1,47,6.43a60.25,60.25,0,0,1,9.28-2.36,3.27,3.27,0,0,1,.54,0A3.15,3.15,0,0,1,60,7.71ZM38.87,16.58a6.06,6.06,0,0,0-1.66,5.51A7.86,7.86,0,1,0,42,26.85a6.26,6.26,0,0,0,1.23.13,6.09,6.09,0,1,0-4.31-10.4Zm-.17,17a5.86,5.86,0,1,1,0-8.29A5.88,5.88,0,0,1,38.7,33.62Zm7.37-9.84a4.09,4.09,0,1,1,0-5.79A4.09,4.09,0,0,1,46.07,23.78ZM9.42,53.19,12.9,49.8a1,1,0,0,1,1.41,0,1,1,0,0,1,0,1.42l-3.47,3.39a1,1,0,0,1-.7.29,1,1,0,0,1-.71-.3A1,1,0,0,1,9.42,53.19ZM11,46.13a1,1,0,0,1-1,.81H9.78l-3.67-.72a1,1,0,0,1,.38-2l3.67.71A1,1,0,0,1,11,46.13Zm6.88,11.8-.72-3.67a1,1,0,0,1,2-.38l.71,3.67A1,1,0,0,1,19,58.72l-.19,0A1,1,0,0,1,17.83,57.93Z"/></svg>