<svg id="Capa_1" enable-background="new 0 0 512 512" height="512" viewBox="0 0 512 512" width="512" xmlns="http://www.w3.org/2000/svg"><g><path d="m487.986 334.016c-12.86-15.694-36.687-17.934-52.247-4.913l-71.375 59.703c-3.645-16.599-18.466-29.06-36.144-29.06h-76.281c-11.107 0-21.872-3.533-30.314-9.949-34.879-26.501-85.733-22.055-115.558 9.949h-28.633v-10.346c0-4.137-3.354-7.49-7.49-7.49h-46.54c-4.137 0-7.49 3.354-7.49 7.49v59.563c0 4.137 3.354 7.49 7.49 7.49s7.49-3.354 7.49-7.49v-52.073h31.559v140.129h-31.559v-55.408c0-4.137-3.354-7.49-7.49-7.49s-7.49 3.354-7.49 7.49v62.899c0 4.137 3.354 7.49 7.49 7.49h46.54c4.137 0 7.49-3.354 7.49-7.49v-13.683h30.877l55.05 16.55c10.189 3.067 20.761 4.622 31.421 4.622h122.392c14.06 0 27.625-5.1 38.191-14.359l53.881-47.179c3.112-2.725 3.426-7.457.701-10.57-2.724-3.112-7.457-3.425-10.569-.701l-53.883 47.18c-7.837 6.866-17.894 10.647-28.321 10.647h-122.391c-9.197 0-18.316-1.341-27.106-3.988l-56.108-16.868c-.699-.21-1.426-.317-2.156-.317h-31.979v-101.12h31.979c2.183 0 4.257-.952 5.68-2.607 23.98-27.897 68.106-32.704 97.468-10.394 11.032 8.384 25.017 13.002 39.377 13.002h76.281c27.486 0 29.438 44.236-.174 44.236h-96.405c-4.137 0-7.49 3.354-7.49 7.49s3.354 7.49 7.49 7.49h96.405c15.04 0 29.619-10.345 34.893-24.416l82.412-68.935c11.163-7.665 21.513-6.69 31.05 2.924 7.182 8.747 6.01 22.955-2.51 30.409l-49.955 43.743c-3.113 2.725-3.426 7.458-.701 10.57 2.725 3.113 7.458 3.426 10.569.701l49.953-43.741c14.592-12.762 16.526-36.203 4.23-51.18z"/><path d="m99.031 190.677 30.852 7.961c2.748 9.645 6.589 18.918 11.459 27.67l-16.185 27.444c-1.735 2.943-1.26 6.686 1.156 9.102l29.448 29.448c2.415 2.415 6.159 2.89 9.102 1.156l27.444-16.185c8.752 4.87 18.026 8.711 27.67 11.459l7.962 30.852c.854 3.308 3.837 5.619 7.253 5.619h41.645c3.416 0 6.399-2.311 7.252-5.619l7.962-30.852c9.644-2.748 18.918-6.589 27.669-11.459l27.444 16.185c2.943 1.734 6.687 1.258 9.102-1.156l29.448-29.448c2.415-2.415 2.89-6.159 1.155-9.102l-16.184-27.444c4.87-8.75 8.71-18.026 11.459-27.67l30.853-7.961c3.307-.854 5.619-3.837 5.619-7.253v-41.646c0-3.416-2.311-6.399-5.619-7.253l-30.853-7.962c-2.748-9.645-6.588-18.918-11.459-27.669l16.184-27.445c1.735-2.942 1.26-6.686-1.155-9.101l-29.448-29.448c-2.415-2.415-6.158-2.891-9.102-1.156l-27.443 16.186c-8.751-4.871-18.026-8.711-27.669-11.459l-7.962-30.852c-.855-3.308-3.838-5.619-7.254-5.619h-41.645c-3.416 0-6.399 2.311-7.253 5.619l-7.962 30.852c-9.644 2.748-18.918 6.589-27.67 11.459l-27.444-16.185c-2.942-1.734-6.686-1.26-9.102 1.156l-29.448 29.448c-2.415 2.415-2.891 6.159-1.156 9.101l16.185 27.445c-4.87 8.751-8.711 18.025-11.459 27.669l-30.852 7.962c-3.308.854-5.619 3.837-5.619 7.253v41.646c.001 3.415 2.312 6.398 5.62 7.252zm9.362-43.096 29.471-7.605c2.664-.688 4.736-2.779 5.398-5.449 2.784-11.219 7.215-21.919 13.171-31.801 1.42-2.356 1.434-5.301.037-7.671l-15.461-26.217 21.242-21.242 26.216 15.461c2.369 1.397 5.315 1.383 7.671-.037 9.883-5.956 20.582-10.387 31.801-13.171 2.67-.663 4.761-2.735 5.449-5.398l7.605-29.471h30.04l7.606 29.471c.687 2.664 2.779 4.736 5.448 5.398 11.219 2.784 21.919 7.215 31.802 13.171 2.356 1.42 5.301 1.434 7.671.037l26.216-15.461 21.241 21.242-15.46 26.217c-1.398 2.369-1.384 5.315.036 7.671 5.955 9.881 10.387 20.58 13.171 31.8.662 2.67 2.735 4.761 5.398 5.449l29.472 7.605v30.041l-29.472 7.605c-2.664.688-4.736 2.779-5.398 5.449-2.784 11.22-7.215 21.92-13.171 31.801-1.42 2.356-1.434 5.301-.036 7.671l15.46 26.216-21.241 21.242-26.216-15.461c-2.37-1.398-5.313-1.384-7.671.036-9.883 5.956-20.583 10.387-31.802 13.171-2.669.663-4.761 2.735-5.448 5.398l-7.606 29.471h-30.04l-7.605-29.471c-.688-2.664-2.779-4.736-5.449-5.398-11.219-2.784-21.919-7.216-31.802-13.171-2.356-1.419-5.301-1.434-7.671-.037l-26.216 15.461-21.242-21.242 15.461-26.216c1.397-2.37 1.383-5.315-.037-7.671-5.955-9.882-10.386-20.582-13.171-31.802-.663-2.669-2.735-4.761-5.398-5.449l-29.471-7.605v-30.038z"/><path d="m256.014 262.921c23.713 0 46.739-8.46 64.835-23.822 17.882-15.18 29.945-36.175 33.965-59.117.714-4.075-2.011-7.957-6.085-8.67-4.08-.716-7.957 2.01-8.671 6.085-7.162 40.876-42.508 70.544-84.044 70.544-47.056 0-85.34-38.284-85.34-85.34s38.284-85.34 85.34-85.34c41.322 0 76.636 29.486 83.971 70.112.735 4.071 4.627 6.772 8.703 6.041 4.071-.735 6.774-4.631 6.04-8.702-8.624-47.764-50.138-82.431-98.713-82.431-55.317 0-100.321 45.003-100.321 100.32-.001 55.317 45.002 100.32 100.32 100.32z"/><path d="m224.818 127.951c-2.897-2.954-7.638-3.002-10.593-.107l-31.022 30.4c-2.998 3.569-2.997 7.137.003 10.703l31.021 30.36c3.547 2.887 7.078 2.849 10.593-.114 2.893-2.957 2.842-7.699-.114-10.593l-25.555-25.01 25.56-25.047c2.954-2.895 3.002-7.637.107-10.592z"/><path d="m259.446 130.144-21.035 61.383c-1.342 3.913.744 8.173 4.657 9.514 3.814 1.228 6.986-.325 9.514-4.657l21.035-61.382c1.341-3.913-.744-8.173-4.657-9.514-3.914-1.345-8.174.742-9.514 4.656z"/><path d="m287.235 199.222c3.523 2.944 7.054 2.963 10.593.057l31.022-30.691c2.964-3.55 2.964-7.1 0-10.649l-31.022-30.691c-2.94-2.909-7.682-2.884-10.593.057-2.909 2.941-2.884 7.683.058 10.593l25.639 25.367-25.639 25.366c-2.942 2.908-2.967 7.65-.058 10.591z"/></g></svg>