<svg id="Capa_1" enable-background="new 0 0 512 512" height="512" viewBox="0 0 512 512" width="512" xmlns="http://www.w3.org/2000/svg"><g><path d="m22.118 304.48c-12.196 0-22.118-9.921-22.118-22.117v-52.726c0-12.196 9.922-22.118 22.118-22.118s22.118 9.922 22.118 22.118v52.726c-.001 12.196-9.923 22.117-22.118 22.117zm0-81.96c-3.925 0-7.118 3.193-7.118 7.118v52.726c0 3.925 3.193 7.118 7.118 7.118s7.118-3.193 7.118-7.118v-52.726c-.001-3.926-3.194-7.118-7.118-7.118z"/><path d="m80.59 358.92c-12.197 0-22.12-9.923-22.12-22.12v-161.6c0-5.896 2.296-11.448 6.467-15.633 4.205-4.19 9.757-6.487 15.653-6.487 12.197 0 22.12 9.923 22.12 22.12v20.94c0 4.142-3.358 7.5-7.5 7.5s-7.5-3.358-7.5-7.5v-20.94c0-3.926-3.194-7.12-7.12-7.12-1.899 0-3.691.743-5.046 2.093-1.33 1.335-2.073 3.127-2.073 5.027v161.6c0 3.926 3.194 7.12 7.12 7.12s7.12-3.194 7.12-7.12v-105.68c0-4.142 3.358-7.5 7.5-7.5s7.5 3.358 7.5 7.5v105.68c-.001 12.197-9.924 22.12-22.121 22.12z"/><path d="m139.059 322.314c-12.196 0-22.118-9.922-22.118-22.117v-88.393c0-12.196 9.922-22.117 22.117-22.117 12.196 0 22.118 9.922 22.118 22.117v88.393c0 12.195-9.922 22.117-22.117 22.117zm0-117.628c-3.925 0-7.118 3.193-7.118 7.117v88.393c0 3.925 3.193 7.117 7.117 7.117 3.925 0 7.118-3.193 7.118-7.117v-88.393c0-3.924-3.193-7.117-7.117-7.117z"/><path d="m197.529 304.48c-12.196 0-22.118-9.922-22.118-22.118v-52.726c0-12.196 9.922-22.118 22.118-22.118s22.118 9.922 22.118 22.118v52.726c0 12.197-9.922 22.118-22.118 22.118zm0-81.96c-3.925 0-7.118 3.193-7.118 7.118v52.726c0 3.925 3.193 7.118 7.118 7.118s7.118-3.193 7.118-7.118v-52.726c0-3.926-3.193-7.118-7.118-7.118z"/><path d="m256 356.053c-12.196 0-22.118-9.922-22.118-22.118v-155.87c0-12.196 9.922-22.118 22.118-22.118 12.195 0 22.117 9.922 22.117 22.118v155.87c0 12.196-9.922 22.118-22.117 22.118zm0-185.106c-3.925 0-7.118 3.193-7.118 7.118v155.87c0 3.925 3.193 7.118 7.118 7.118s7.117-3.193 7.117-7.118v-155.87c0-3.925-3.192-7.118-7.117-7.118z"/><path d="m314.47 441.07c-12.197 0-22.12-9.923-22.12-22.12v-15.24c0-4.142 3.357-7.5 7.5-7.5s7.5 3.358 7.5 7.5v15.24c0 3.926 3.194 7.12 7.12 7.12s7.12-3.194 7.12-7.12v-325.9c0-3.926-3.194-7.12-7.12-7.12-1.899 0-3.691.744-5.047 2.094-1.329 1.335-2.073 3.127-2.073 5.026v275.68c0 4.142-3.357 7.5-7.5 7.5s-7.5-3.358-7.5-7.5v-275.68c0-5.895 2.297-11.446 6.467-15.633 4.207-4.191 9.759-6.487 15.653-6.487 12.197 0 22.12 9.923 22.12 22.12v325.9c0 12.197-9.923 22.12-22.12 22.12z"/><path d="m372.941 356.053c-12.196 0-22.118-9.922-22.118-22.118v-155.87c0-12.196 9.922-22.118 22.118-22.118 12.195 0 22.117 9.922 22.117 22.118v155.87c.001 12.196-9.921 22.118-22.117 22.118zm0-185.106c-3.925 0-7.118 3.193-7.118 7.118v155.87c0 3.925 3.193 7.118 7.118 7.118s7.117-3.193 7.117-7.118v-155.87c.001-3.925-3.192-7.118-7.117-7.118z"/><path d="m431.412 317.338c-12.196 0-22.118-9.922-22.118-22.118v-78.44c0-12.196 9.922-22.118 22.118-22.118 12.195 0 22.117 9.922 22.117 22.118v78.44c0 12.196-9.922 22.118-22.117 22.118zm0-107.676c-3.925 0-7.118 3.193-7.118 7.118v78.44c0 3.925 3.193 7.118 7.118 7.118s7.117-3.193 7.117-7.118v-78.44c0-3.925-3.192-7.118-7.117-7.118z"/><path d="m489.883 337.529c-12.196 0-22.118-9.922-22.118-22.118v-118.822c0-12.196 9.922-22.118 22.118-22.118 12.195 0 22.117 9.922 22.117 22.118v118.823c0 12.195-9.922 22.117-22.117 22.117zm0-148.058c-3.925 0-7.118 3.193-7.118 7.118v118.823c0 3.925 3.193 7.118 7.118 7.118s7.117-3.193 7.117-7.118v-118.823c0-3.925-3.192-7.118-7.117-7.118z"/></g></svg>